Coordinates
version=1
nRows=22
nColumns=26
inDegrees=yes

Units are S.I. units (second, meters, Newtons, ...)
Angles are in degrees.

endheader
time	pelvis_tilt	pelvis_list	pelvis_rotation	pelvis_tx	pelvis_ty	pelvis_tz	hip_flexion_r	hip_adduction_r	hip_rotation_r	knee_angle_r	knee_angle_r_beta	ankle_angle_r	subtalar_angle_r	mtp_angle_r	hip_flexion_l	hip_adduction_l	hip_rotation_l	knee_angle_l	knee_angle_l_beta	ankle_angle_l	subtalar_angle_l	mtp_angle_l	lumbar_extension	lumbar_bending	lumbar_rotation
      1.00800000	    -11.17649756	      9.87964689	     -2.45334882	      1.97972323	      0.96858953	      0.19266871	    -15.24288463	    -14.71173730	    -23.60120428	     21.56068857	      0.37630500	    -18.21205213	      0.00000000	      0.00000000	     60.57852402	      8.14717432	     -2.95877964	    109.78346237	      1.91608288	     16.04598212	      0.00000000	      0.00000000	     -1.83762366	    -11.30199794	     16.52651846
      1.01200000	    -11.82666030	     10.72159067	     -1.93728513	      2.00827395	      0.96965818	      0.19237051	    -16.50303795	    -15.38400952	    -24.90295832	     20.18295535	      0.35225902	    -22.13384656	      0.00000000	      0.00000000	     62.35212553	      8.50117412	     -4.28783975	    107.14899467	      1.87010275	     15.82708757	      0.00000000	      0.00000000	     -0.79463983	    -12.46692676	     16.97905506
      1.01600000	    -12.45553883	     11.50072843	     -1.35002375	      2.03671957	      0.97089671	      0.19235256	    -17.66745335	    -15.91926225	    -26.25827530	     19.10589413	      0.33346076	    -25.38158716	      0.00000000	      0.00000000	     63.91782532	      8.81664493	     -5.60760483	    104.33595646	      1.82100597	     15.53752252	      0.00000000	      0.00000000	      0.15915227	    -13.63897018	     17.31292026
      1.02000000	    -12.95450608	     12.00057173	     -0.86602612	      2.06524818	      0.97219148	      0.19233976	    -18.80961977	    -16.15785058	    -27.38225978	     18.29867219	      0.31937208	    -27.85589520	      0.00000000	      0.00000000	     65.13021180	      8.93225491	     -6.72351088	    101.44841977	      1.77060895	     15.34440137	      0.00000000	      0.00000000	      0.96665245	    -14.47578480	     17.72309839
      1.02400000	    -13.41350155	     12.32398240	     -0.35539130	      2.09348454	      0.97356133	      0.19244262	    -19.82963351	    -16.15579176	    -27.97472943	     17.78044938	      0.31032738	    -29.06521263	      0.00000000	      0.00000000	     66.09069119	      8.94845593	     -7.74986061	     98.40221471	      1.71744264	     15.21760440	      0.00000000	      0.00000000	      1.66781876	    -15.17913656	     18.03281430
      1.02800000	    -13.65351494	     12.04039901	     -0.00410231	      2.12145808	      0.97498562	      0.19250462	    -20.75092869	    -15.59700833	    -27.96664132	     17.75347611	      0.30985661	    -29.24245831	      0.00000000	      0.00000000	     66.63200476	      8.58024790	     -8.31155848	     95.34065643	      1.66400837	     15.32274276	      0.00000000	      0.00000000	      2.08588080	    -15.12699181	     18.36796824
      1.03200000	    -14.07507028	     12.45867564	      0.48083842	      2.14922362	      0.97620045	      0.19249717	    -21.60283174	    -15.59916418	    -27.33212611	     17.77481565	      0.31022906	    -29.80710249	      0.00000000	      0.00000000	     67.20217901	      8.65856447	     -9.63134520	     91.94989415	      1.60482840	     15.01759919	      0.00000000	      0.00000000	      2.66387375	    -15.91308061	     18.61690376
      1.03600000	    -14.21798837	     12.26403558	      0.78603430	      2.17688437	      0.97752841	      0.19249774	    -22.38216149	    -15.10471659	    -26.22383235	     18.47017282	      0.32236533	    -29.49615005	      0.00000000	      0.00000000	     67.31978801	      8.38472514	    -10.42452688	     88.58023997	      1.54601684	     14.95157662	      0.00000000	      0.00000000	      2.91541742	    -15.97562491	     18.93666353
      1.04000000	    -14.32600172	     11.96781744	      0.92046087	      2.20424556	      0.97881595	      0.19248990	    -22.82240782	    -14.56771997	    -24.29204598	     19.82061674	      0.34593502	    -28.36123593	      0.00000000	      0.00000000	     67.24167858	      7.97016879	    -11.20471540	     85.07742223	      1.48488114	     14.85753044	      0.00000000	      0.00000000	      3.13925305	    -15.88680814	     19.35114660
      1.04400000	    -14.40860690	     11.46612335	      1.07642492	      2.23146036	      0.98019009	      0.19237311	    -23.08586757	    -13.75435048	    -21.89127410	     21.51414077	      0.37549259	    -27.80238342	      0.00000000	      0.00000000	     67.00557545	      7.55911252	    -11.78278557	     81.48532566	      1.42218722	     14.71636376	      0.00000000	      0.00000000	      3.27644457	    -15.56171543	     19.68123324
      1.04800000	    -14.43750139	     10.91997073	      1.23536677	      2.25852026	      0.98155685	      0.19216865	    -23.20463494	    -12.86941782	    -19.35419505	     23.61426611	      0.41214669	    -27.65042130	      0.00000000	      0.00000000	     66.57221164	      7.20228082	    -12.29229204	     77.76145985	      1.35719351	     14.52616250	      0.00000000	      0.00000000	      3.33360785	    -15.17829514	     19.95636501
      1.05200000	    -14.43683075	     10.34704755	      1.35224463	      2.28542522	      0.98299800	      0.19183872	    -23.18963054	    -11.95258796	    -16.75118632	     26.01570578	      0.45405972	    -28.07631010	      0.00000000	      0.00000000	     65.97707810	      6.87221356	    -12.79084905	     73.93088577	      1.29033738	     14.26626872	      0.00000000	      0.00000000	      3.33837273	    -14.74345645	     20.20666631
      1.05600000	    -14.25724125	      9.67589124	      1.64225561	      2.31226428	      0.98463400	      0.19152358	    -23.24581404	    -10.83116783	    -14.53960687	     28.71084340	      0.50109875	    -28.92947543	      0.00000000	      0.00000000	     65.04260323	      6.74648474	    -12.99750047	     70.00602363	      1.22183561	     13.95786318	      0.00000000	      0.00000000	      3.04471093	    -14.25349477	     20.27809406
      1.06000000	    -14.23307275	      9.14895915	      1.73337624	      2.33903109	      0.98603235	      0.19122816	    -22.87297183	     -9.99773833	    -12.43403787	     31.92237288	      0.55715051	    -29.66793250	      0.00000000	      0.00000000	     64.16087936	      6.46145037	    -13.65021883	     66.03605013	      1.15254650	     12.99588533	      0.00000000	      0.00000000	      2.98178061	    -13.88549727	     20.57145473
      1.06400000	    -14.01236275	      8.62197351	      2.01426100	      2.36587537	      0.98752394	      0.19086989	    -22.69869315	     -9.06100771	    -10.83058308	     35.21603307	      0.61463573	    -30.50525693	      0.00000000	      0.00000000	     62.97174226	      6.42166560	    -14.11376414	     62.10169959	      1.08387913	     11.99068375	      0.00000000	      0.00000000	      2.64670351	    -13.52005316	     20.68655454
      1.06800000	    -13.71584330	      8.21664631	      2.17785662	      2.39271143	      0.98895659	      0.19033027	    -22.48292370	     -8.33751753	     -9.46895345	     38.75526513	      0.67640698	    -31.07571045	      0.00000000	      0.00000000	     61.64827458	      6.38177210	    -14.82809045	     58.25343166	      1.01671418	     10.81751382	      0.00000000	      0.00000000	      2.21463609	    -13.25302153	     20.80517979
      1.07200000	    -13.35110958	      7.91080340	      2.52226506	      2.41969367	      0.99032724	      0.18964960	    -22.37575309	     -7.67341940	     -8.62676937	     42.30594132	      0.73837797	    -31.17842344	      0.00000000	      0.00000000	     60.16540228	      6.58623867	    -15.46261869	     54.46895291	      0.95066257	      9.62168724	      0.00000000	      0.00000000	      1.68471469	    -13.09902715	     20.75576443
      1.07600000	    -12.88848656	      7.57005426	      2.86721149	      2.44654496	      0.99171450	      0.18904685	    -22.29118895	     -6.98170949	     -7.98617055	     45.97083181	      0.80234237	    -31.00681854	      0.00000000	      0.00000000	     58.57961736	      6.78116949	    -16.02075996	     50.91672389	      0.88866448	      8.44948646	      0.00000000	      0.00000000	      1.03649377	    -12.88665210	     20.62764111
      1.08000000	    -12.43866273	      7.30416785	      3.30733962	      2.47352478	      0.99291331	      0.18825049	    -22.20344017	     -6.41100832	     -7.73501053	     49.66642812	      0.86684270	    -30.49490788	      0.00000000	      0.00000000	     56.96431302	      7.11192732	    -16.59030360	     47.54026332	      0.82973412	      7.41057540	      0.00000000	      0.00000000	      0.38693726	    -12.75992841	     20.39663025
      1.08400000	    -11.90912018	      7.13034756	      3.88026604	      2.50020439	      0.99414551	      0.18746536	    -22.17528965	     -5.92953736	     -7.84970490	     53.40890088	      0.93216117	    -29.92858275	      0.00000000	      0.00000000	     55.25149165	      7.65493736	    -16.93155483	     44.34270482	      0.77392620	      6.28199703	      0.00000000	      0.00000000	     -0.40915097	    -12.74524895	     19.96590046
      1.08800000	    -11.42700916	      6.91699628	      4.48883125	      2.52714762	      0.99500671	      0.18647236	    -22.09598090	     -5.46280594	     -8.13691163	     57.15126751	      0.99747779	    -29.33712309	      0.00000000	      0.00000000	     53.60892317	      8.17075380	    -17.30848212	     41.50778288	      0.72444748	      5.33259014	      0.00000000	      0.00000000	     -1.11638328	    -12.65934965	     19.47545934
      1.09200000	    -10.95734642	      6.74652422	      5.16718574	      2.55405335	      0.99570280	      0.18543862	    -21.99369543	     -5.07508536	     -8.65413452	     60.89194777	      1.06276498	    -28.73980088	      0.00000000	      0.00000000	     51.93445185	      8.74895726	    -17.52245923	     38.85295496	      0.67811199	      4.29372281	      0.00000000	      0.00000000	     -1.77386068	    -12.60588830	     18.90897408
